<?xml version="1.0" encoding="UTF-8"?> <svg xmlns="http://www.w3.org/2000/svg" width="50" height="50" viewBox="0 0 50 50" fill="none"> <g clip-path="url(#clip0)"> <path d="M36.3802 28.647C35.8961 26.3734 34.1738 24.9101 31.9788 24.9101C31.0445 24.9101 30.0538 25.1915 29.0746 25.7429C28.0954 25.1691 27.1048 24.8762 26.137 24.8762C23.9192 24.8762 22.1974 26.3619 21.7471 28.647C21.128 31.7086 22.9853 35.727 28.5008 37.8208C28.5232 37.8323 28.5342 37.8323 28.5571 37.8433C28.879 37.9483 29.2254 37.9483 29.5473 37.8433C29.5702 37.8323 29.5926 37.8323 29.615 37.8208C35.142 35.7046 36.9878 31.6862 36.3802 28.647ZM29.0636 35.6373C24.9661 33.9937 23.5367 31.1911 23.9531 29.0973C24.2006 27.8705 25.0114 27.1275 26.137 27.1275C26.8348 27.1275 27.6113 27.4313 28.4107 27.9941C28.7954 28.2733 29.3151 28.2777 29.7051 28.0055C30.4816 27.4651 31.292 27.1613 31.9674 27.1613C33.093 27.1613 33.9148 27.893 34.1738 29.1087C34.5902 31.1683 33.1607 33.9713 29.0636 35.6373Z" fill="#E19371"></path> <path d="M45.2726 12.3478H38.3835V9.33108C38.3879 6.3561 36.9708 3.55745 34.57 1.79955C32.1693 0.0420849 29.0734 -0.463564 26.2383 0.43869C23.4031 -0.463564 20.3072 0.0420849 17.9065 1.79955C15.5057 3.55745 14.0891 6.3561 14.093 9.33108V12.3478H12.044C12.0216 12.3478 11.9992 12.3593 11.9768 12.3593C11.9653 12.3593 11.9429 12.3702 11.9315 12.3702C11.909 12.3702 11.8981 12.3817 11.8752 12.3817C11.8528 12.3817 11.8418 12.3931 11.8189 12.3931C11.8022 12.3958 11.7864 12.4037 11.7741 12.4155C11.7516 12.4265 11.7402 12.4265 11.7178 12.438C11.7063 12.4494 11.6954 12.4494 11.6729 12.4604C11.6527 12.4692 11.6338 12.4806 11.6166 12.4942C11.6052 12.4942 11.6052 12.5057 11.5938 12.5057L10.2096 13.3385C9.13369 13.9914 7.78427 13.9914 6.70877 13.3385L5.33561 12.5057C4.98913 12.2929 4.55471 12.2841 4.19988 12.4824C3.8446 12.6811 3.62476 13.0557 3.62476 13.4625V44.3717C3.62564 47.4794 6.14465 49.9989 9.25285 49.9998H40.7702C43.8779 49.9989 46.3969 47.4794 46.3983 44.3717V13.4734C46.3965 12.8526 45.8935 12.3496 45.2726 12.3478V12.3478ZM36.1323 9.33108V12.3478H32.7554V9.33108C32.7576 6.61245 31.5687 4.02924 29.5026 2.26254C33.2307 2.50174 36.1323 5.59543 36.1323 9.33108ZM21.9609 12.3478V9.33108C21.9631 6.50736 23.6379 3.95317 26.2268 2.82535C28.8179 3.95053 30.4941 6.50648 30.4932 9.33108V12.3478H21.9609ZM16.3328 9.33108C16.3368 5.59675 19.2361 2.50526 22.9625 2.26254C20.9008 4.03276 19.7127 6.61376 19.7097 9.33108V12.3478H16.3328V9.33108ZM5.87599 44.3831V15.4547C7.49847 16.2989 9.43093 16.2989 11.0538 15.4547V44.3831C11.0525 45.6011 11.4474 46.7865 12.1795 47.76H9.25285C7.38986 47.7543 5.88127 46.2457 5.87599 44.3831ZM44.147 44.3831C44.1413 46.2457 42.6327 47.7543 40.7702 47.76H16.6819C14.8189 47.7543 13.3104 46.2457 13.3051 44.3831V14.5991H15.0269C15.0898 14.6127 15.154 14.6206 15.2186 14.6215C15.2828 14.6197 15.347 14.6123 15.4099 14.5991H19.7211V22.6134C19.7211 23.2351 20.225 23.739 20.8467 23.739C21.468 23.739 21.9723 23.2351 21.9723 22.6134V14.5991H31.45C31.5128 14.6127 31.577 14.6206 31.6412 14.6215C31.7054 14.6197 31.7696 14.6123 31.8325 14.5991H36.1437V22.6134C36.1437 23.2351 36.6476 23.739 37.2693 23.739C37.891 23.739 38.3949 23.2351 38.3949 22.6134V14.5991H44.147V44.3831Z" fill="#E19371"></path> </g> <defs> <clipPath id="clip0"> <rect width="50" height="50" fill="white"></rect> </clipPath> </defs> </svg> 