<?xml version="1.0" encoding="UTF-8"?> <svg xmlns="http://www.w3.org/2000/svg" width="50" height="50" viewBox="0 0 50 50" fill="none"> <g clip-path="url(#clip0)"> <path d="M47.6546 21.3506L41.4659 15.6229C40.1124 14.3705 38.336 13.6747 36.4921 13.6755H33.3299V13.0366C33.3287 10.1456 30.9853 7.80225 28.0943 7.80103H5.2356C2.34457 7.80225 0.0012271 10.1456 0 13.0366V36.4815C0.00163612 37.0594 0.469568 37.5269 1.04712 37.5286H4.31405C4.76603 40.2069 7.08524 42.1674 9.8012 42.1674C12.5168 42.1674 14.836 40.2069 15.2879 37.5286H34.7852C35.2372 40.2069 37.5564 42.1674 40.2724 42.1674C42.9879 42.1674 45.3071 40.2069 45.7591 37.5286H48.9528C49.5304 37.5269 49.9983 37.0594 50 36.4815V26.733C50.0069 24.6895 49.1561 22.7368 47.6546 21.3506V21.3506ZM46.2303 22.8902H40.0315V17.1519L40.0417 17.1621L46.2303 22.8902ZM5.2356 9.89526H28.0943C29.827 9.90017 31.2303 11.304 31.2357 13.0366V25.1726H2.09424V13.0366C2.09915 11.304 3.50294 9.90017 5.2356 9.89526V9.89526ZM9.8012 40.0732C7.88694 40.0732 6.33507 38.5213 6.33507 36.6074C6.33507 34.6932 7.88694 33.1413 9.8012 33.1413C11.7151 33.1413 13.2669 34.6932 13.2669 36.6074C13.2649 38.5205 11.7142 40.0711 9.8012 40.0732V40.0732ZM9.8012 31.0364C7.17768 31.0401 4.91164 32.8709 4.35618 35.4343H2.09424V27.2668H31.2357V35.4343H15.2462C14.6936 32.8689 12.4255 31.0369 9.8012 31.0364V31.0364ZM40.2724 40.0732C38.3581 40.0732 36.8063 38.5213 36.8063 36.6074C36.8063 34.6932 38.3581 33.1413 40.2724 33.1413C42.1862 33.1413 43.7381 34.6932 43.7381 36.6074C43.7361 38.5205 42.1854 40.0711 40.2724 40.0732V40.0732ZM47.9164 35.4343H45.7174C45.1652 32.8689 42.8967 31.0364 40.2724 31.0364C37.6476 31.0364 35.3791 32.8689 34.8274 35.4343H33.3299V15.7698H36.4921C36.9805 15.7718 37.4664 15.8389 37.9372 15.9686V22.8902C37.9405 24.0453 38.8764 24.9807 40.0315 24.9844H47.6124C47.8141 25.5452 47.9168 26.1371 47.9164 26.733V35.4343Z" fill="#E19371"></path> <path d="M9.8012 33.6233C8.15853 33.6233 6.82713 34.9547 6.82713 36.5969C6.82713 38.2392 8.15853 39.5706 9.8012 39.5706C11.4435 39.5706 12.7749 38.2392 12.7749 36.5969C12.7724 34.9555 11.4422 33.6257 9.8012 33.6233ZM9.8012 37.487C9.31527 37.487 8.92137 37.0931 8.92137 36.6076C8.92137 36.1216 9.31527 35.7278 9.8012 35.7278C10.2867 35.7278 10.6806 36.1216 10.6806 36.6076C10.6778 37.0919 10.2855 37.4841 9.8012 37.487Z" fill="#E19371"></path> <path d="M40.2724 33.6233C38.6297 33.6233 37.2983 34.9547 37.2983 36.5969C37.2983 38.2392 38.6297 39.5706 40.2724 39.5706C41.9146 39.5706 43.246 38.2392 43.246 36.5969C43.2436 34.9555 41.9134 33.6257 40.2724 33.6233ZM40.2724 37.487C39.7865 37.487 39.3926 37.0931 39.3926 36.6076C39.3926 36.1216 39.7865 35.7278 40.2724 35.7278C40.7579 35.7278 41.1518 36.1216 41.1518 36.6076C41.1489 37.0919 40.7567 37.4841 40.2724 37.487Z" fill="#E19371"></path> <path d="M14.4609 20.4189C14.6564 20.6189 14.9243 20.7318 15.2041 20.7331C15.4818 20.731 15.7481 20.6222 15.9477 20.4296L20.9841 15.3927C21.3919 14.9849 21.3919 14.3239 20.9841 13.9161C20.5767 13.5087 19.9157 13.5087 19.5079 13.9161L15.2147 18.2093L13.1307 16.084C12.7262 15.6733 12.0652 15.6684 11.6545 16.0734C11.2439 16.4783 11.2394 17.1393 11.6439 17.55L14.4609 20.4189Z" fill="#E19371"></path> </g> <defs> <clipPath id="clip0"> <rect width="50" height="50" fill="white"></rect> </clipPath> </defs> </svg> 