<?xml version="1.0" encoding="UTF-8"?> <svg xmlns="http://www.w3.org/2000/svg" width="120" height="68" viewBox="0 0 120 68" fill="none"> <path d="M17.646 61.6007L15.7096 64.9474V67.1481H14.7974V64.9474L12.861 61.6007H13.8974L15.2535 64.0547L16.6026 61.6007H17.646Z" fill="#F08A5D"></path> <path d="M24.0776 66.4106C23.6042 66.8897 22.9788 67.1899 22.3082 67.2601C21.6375 67.3302 20.9633 67.1659 20.4006 66.7952C19.8379 66.4245 19.4217 65.8704 19.2231 65.2275C19.0244 64.5847 19.0556 63.893 19.3114 63.2706C19.5672 62.6481 20.0317 62.1336 20.6255 61.8149C21.2193 61.4962 21.9056 61.393 22.5672 61.523C23.2288 61.653 23.8247 62.0082 24.2529 62.5278C24.6812 63.0474 24.9154 63.6992 24.9154 64.3719C24.9229 64.7508 24.8525 65.1272 24.7084 65.4779C24.5643 65.8285 24.3496 66.146 24.0776 66.4106ZM20.6348 65.7919C21.0097 66.1554 21.512 66.3588 22.0349 66.3588C22.5577 66.3588 23.06 66.1554 23.435 65.7919C23.799 65.4079 24.0018 64.8995 24.0018 64.371C24.0018 63.8426 23.799 63.3341 23.435 62.9501C23.0596 62.5874 22.5575 62.3846 22.0349 62.3846C21.5123 62.3846 21.0102 62.5874 20.6348 62.9501C20.2708 63.3341 20.068 63.8426 20.068 64.371C20.068 64.8995 20.2708 65.4079 20.6348 65.7919Z" fill="#F08A5D"></path> <path d="M30.8509 66.719C30.4193 67.0593 29.8852 67.2445 29.3351 67.2445C28.7849 67.2445 28.2508 67.0593 27.8192 66.719C27.6235 66.5407 27.4695 66.3218 27.368 66.0776C27.2665 65.8334 27.22 65.5699 27.2319 65.3058V61.6007H28.144V65.2507C28.1367 65.3983 28.1594 65.5458 28.2108 65.6844C28.2622 65.823 28.3411 65.9498 28.4428 66.0572C28.699 66.2527 29.0125 66.3587 29.3351 66.3587C29.6576 66.3587 29.9711 66.2527 30.2273 66.0572C30.3288 65.9497 30.4075 65.8229 30.4585 65.6843C30.5096 65.5457 30.532 65.3982 30.5244 65.2507V61.6007H31.44V65.3058C31.4511 65.57 31.4042 65.8334 31.3024 66.0775C31.2006 66.3217 31.0465 66.5406 30.8509 66.719Z" fill="#F08A5D"></path> <path d="M37.237 67.1429L36.0641 65.1198H34.9844V67.1395H34.0723V61.6007H36.2938C36.5288 61.5991 36.7617 61.6442 36.979 61.7332C37.1964 61.8222 37.3938 61.9534 37.5598 62.1192C37.7259 62.285 37.8572 62.4821 37.9462 62.699C38.0352 62.9159 38.0801 63.1483 38.0783 63.3827C38.08 63.7291 37.9738 64.0676 37.7743 64.3512C37.5781 64.6385 37.3001 64.8606 36.9762 64.9888L38.2372 67.1429H37.237ZM34.9913 62.4555V64.3081H36.3007C36.4171 64.3098 36.5324 64.2867 36.6391 64.2403C36.7457 64.1939 36.8412 64.1254 36.9192 64.0392C37.0824 63.859 37.1728 63.6247 37.1728 63.3818C37.1728 63.1389 37.0824 62.9046 36.9192 62.7243C36.8412 62.6382 36.7457 62.5697 36.6391 62.5233C36.5324 62.4769 36.4171 62.4538 36.3007 62.4555H34.9913Z" fill="#F08A5D"></path> <path d="M47.3636 64.2685C47.6031 64.3872 47.8036 64.5718 47.9414 64.8005C48.0791 65.0292 48.1484 65.2925 48.1409 65.5593C48.1461 65.7715 48.1056 65.9824 48.0221 66.1777C47.9387 66.373 47.8143 66.5482 47.6572 66.6915C47.3373 66.9908 46.9124 67.153 46.4739 67.143H44.0935V61.6008H46.296C46.7241 61.5904 47.1391 61.7482 47.4517 62.0402C47.6043 62.1786 47.7254 62.348 47.8068 62.5371C47.8882 62.7262 47.9279 62.9305 47.9233 63.1363C47.9316 63.3565 47.8847 63.5754 47.787 63.773C47.6893 63.9707 47.5438 64.141 47.3636 64.2685ZM46.296 62.4555H45.0038V63.9135H46.296C46.3905 63.9158 46.4845 63.8985 46.5719 63.8626C46.6594 63.8267 46.7384 63.773 46.8039 63.705C46.9358 63.565 47.0092 63.3801 47.0092 63.188C47.0092 62.9958 46.9358 62.8109 46.8039 62.671C46.7386 62.6022 46.6598 62.5475 46.5724 62.5105C46.485 62.4734 46.3909 62.4547 46.296 62.4555ZM46.4687 66.2865C46.5687 66.2887 46.6681 66.2699 46.7604 66.2313C46.8526 66.1927 46.9357 66.1352 47.0042 66.0625C47.1453 65.9137 47.2239 65.7167 47.2239 65.5119C47.2239 65.3071 47.1453 65.1101 47.0042 64.9613C46.9358 64.8883 46.8528 64.8305 46.7605 64.7916C46.6683 64.7528 46.5689 64.7336 46.4687 64.7355H45.0021V66.2865H46.4687Z" fill="#F08A5D"></path> <path d="M51.4336 66.2709H53.8969V67.1429H50.5215V61.6007H53.8538V62.4624H51.4353V63.9134H53.6551V64.7751H51.4336V66.2709Z" fill="#F08A5D"></path> <path d="M60.012 67.1429L59.6233 66.0262H57.2584L56.8697 67.1429H55.8781L57.8924 61.6007H58.9876L60.9949 67.1429H60.012ZM57.559 65.1714H59.321L58.44 62.6692L57.559 65.1714Z" fill="#F08A5D"></path> <path d="M65.5988 67.2445C65.159 67.2447 64.7251 67.1445 64.3302 66.9515C63.9353 66.7585 63.5899 66.478 63.3205 66.1313C63.0511 65.7846 62.8648 65.381 62.7758 64.9514C62.6869 64.5218 62.6977 64.0776 62.8074 63.6528C62.9172 63.228 63.1229 62.8339 63.4089 62.5006C63.6948 62.1674 64.0534 61.9039 64.4573 61.7303C64.8611 61.5566 65.2994 61.4775 65.7386 61.499C66.1778 61.5204 66.6062 61.6418 66.9911 61.854C67.4043 62.0798 67.7482 62.4134 67.9861 62.819L67.1984 63.2792C67.0496 63.0046 66.8255 62.7781 66.5523 62.626C66.2629 62.4639 65.9358 62.3807 65.6039 62.3848C65.3379 62.3742 65.0726 62.4187 64.8247 62.5153C64.5768 62.612 64.3515 62.7588 64.1632 62.9466C63.8084 63.3368 63.6119 63.8449 63.6119 64.3718C63.6119 64.8986 63.8084 65.4067 64.1632 65.7969C64.3515 65.9847 64.5768 66.1315 64.8247 66.2282C65.0726 66.3249 65.3379 66.3693 65.6039 66.3587C65.9369 66.3629 66.2652 66.2797 66.5558 66.1175C66.8295 65.9673 67.0529 65.7402 67.1984 65.4643L67.9913 65.9159C67.7576 66.3233 67.4157 66.6585 67.0032 66.8844C66.5753 67.1264 66.0906 67.2507 65.5988 67.2445Z" fill="#F08A5D"></path> <path d="M73.6213 61.6007H74.5334V67.1429H73.6213V64.744H71.2408V67.1429H70.327V61.6007H71.2408V63.872H73.6213V61.6007Z" fill="#F08A5D"></path> <path d="M81.9769 67.1429L80.4049 61.6007H81.3636L82.5297 65.9314L83.7924 61.6007H84.6337L85.8861 65.9314L87.0642 61.6007H88.023L86.4527 67.1429H85.3886L84.2139 63.0965L83.0324 67.1429H81.9769Z" fill="#F08A5D"></path> <path d="M91.2291 66.2709H93.689V67.1429H90.317V61.6007H93.6493V62.4624H91.2308V63.9134H93.4558V64.7751H91.2291V66.2709Z" fill="#F08A5D"></path> <path d="M99.8059 67.1429L99.4172 66.0262H97.0523L96.6636 67.1429H95.672L97.688 61.6007H98.7832L100.791 67.1429H99.8059ZM97.3546 65.1714H99.1166L98.2356 62.6692L97.3546 65.1714Z" fill="#F08A5D"></path> <path d="M106.139 67.1429L104.964 65.1198H103.885V67.1395H102.972V61.6007H105.203C105.438 61.5994 105.67 61.6445 105.888 61.7336C106.105 61.8226 106.303 61.9538 106.469 62.1196C106.635 62.2853 106.766 62.4823 106.856 62.6991C106.945 62.9159 106.99 63.1483 106.989 63.3826C106.991 63.7294 106.884 64.0681 106.683 64.3512C106.487 64.6385 106.209 64.8606 105.885 64.9888L107.148 67.1429H106.139ZM103.893 62.4555V64.3081H105.203C105.319 64.3098 105.435 64.2867 105.542 64.2403C105.649 64.194 105.744 64.1254 105.823 64.0392C105.986 63.859 106.076 63.6247 106.076 63.3818C106.076 63.1389 105.986 62.9046 105.823 62.7243C105.744 62.6381 105.649 62.5696 105.542 62.5232C105.435 62.4769 105.319 62.4538 105.203 62.4555H103.893Z" fill="#F08A5D"></path> <path d="M37.961 30.2719C37.961 30.8578 37.7002 31.5075 37.4428 32.0917V32.0262C37.1819 32.0262 36.2059 36.8325 33.4696 38.5869C33.0792 38.6524 32.0375 40.7307 31.1911 41.1202C31.135 41.0775 31.0664 41.0544 30.9959 41.0547C30.799 41.0547 30.799 41.3149 30.735 41.4441C30.1477 42.8711 25.3937 46.1867 24.0256 47.3517C22.4708 48.5873 21.1614 49.9505 19.1438 50.6002C16.6683 51.8995 10.9383 56.0562 5.79564 56.0562C2.27852 56.0596 0 52.1632 0 49.3697C0 47.7463 0.716897 45.9231 1.75856 44.4979C1.75856 44.1084 2.34417 43.7827 2.66893 43.264C2.92978 42.485 5.46915 39.4968 6.24996 39.1711C6.96686 38.9074 7.61812 37.9372 8.07417 37.3564C8.20373 37.0962 11.46 35.0179 11.98 34.3682C12.7625 33.2635 15.6266 32.5501 16.8635 31.3162C17.3196 30.7992 18.2973 31.056 18.4182 30.4063C19.0038 30.5355 18.743 30.8612 19.0695 30.8612C19.0695 30.8612 20.1768 29.4309 20.8919 29.4309C22.0649 29.4309 23.4313 28.5227 23.5626 28.5227C23.6299 28.5271 23.6932 28.5558 23.7409 28.6033C23.7885 28.6509 23.8173 28.7141 23.8217 28.7812C23.5945 28.9668 23.3971 29.1859 23.2361 29.4309C22.4553 30.1461 21.2824 30.2115 20.5015 30.8612C19.0038 32.0297 11.5187 34.8886 11.5187 36.512C11.5187 36.836 11.8435 37.2255 11.8435 37.4857C11.8435 37.8114 10.9314 37.9406 10.6723 37.9406C10.5395 37.7906 10.3539 37.6974 10.154 37.6804C9.50278 37.6804 8.07071 39.3055 8.07071 39.8242C8.07071 40.0845 8.58895 40.3412 8.58895 40.6049C8.58895 40.8686 8.26419 41.0581 8.00334 41.1219L7.80814 41.0564C7.61293 40.7979 7.61293 40.4722 7.2899 40.212C7.09297 40.343 7.09297 40.6032 7.09297 40.8617C7.10639 40.9998 7.1513 41.133 7.22425 41.2511L7.15861 41.6423C6.7682 41.6423 6.89776 41.5114 6.573 41.3821C6.3778 41.5768 5.53652 42.8108 5.53652 43.0055C5.53652 44.1101 4.69006 44.2394 4.69006 45.1493C4.69006 45.9937 2.80195 49.2422 1.8242 49.2422C1.95549 49.5007 2.41154 49.5662 2.41154 49.8264C2.41154 50.2813 2.15069 50.6708 2.15069 51.1258C2.15069 51.71 2.93151 53.0731 3.70541 53.0731C7.54729 53.0731 10.2179 50.7363 13.0164 50.0866C12.9987 50.3245 12.9082 50.5513 12.7573 50.7363C13.4725 50.5398 13.2756 50.3451 13.6677 49.9556L13.6038 49.6317L13.9942 49.5662L14.3898 49.7643C14.6506 49.5696 16.2122 48.7304 16.2122 48.5305C16.2122 48.465 16.1483 48.4012 16.1483 48.2702L16.4075 48.2065C16.9948 48.2065 17.7756 46.9708 18.4925 46.7123C19.529 46.2574 22.1374 43.6586 22.7248 43.5931C24.2225 43.3346 25.1329 41.5803 25.6615 41.5803C25.0759 43.8534 13.8111 50.414 13.8111 50.9345L14.0719 51.3877C14.0063 51.5825 13.8111 51.8427 13.8111 52.0374C13.8111 52.1684 13.9406 52.2321 13.9406 52.3631L13.8111 52.4286C13.7494 52.3496 13.6709 52.2853 13.5813 52.2403C13.4917 52.1953 13.3931 52.1707 13.2928 52.1684C12.9681 52.1684 12.6416 52.4286 12.3168 52.4286L11.2095 53.0766C10.8191 53.2075 9.19183 54.1106 9.12619 54.4414L9.32139 54.5069C10.2974 54.2467 11.0143 53.597 12.056 53.4023C15.2466 52.6871 17.2643 50.6088 20.0645 49.2456C22.6695 47.9462 25.0137 45.1527 27.7483 43.3984C27.7483 43.2037 27.6826 43.0744 27.3578 43.0744C26.6409 43.5914 24.4212 46.1919 23.5816 46.1919C23.4503 46.1919 23.3208 45.9317 23.1256 45.8679L22.457 46.2522L22.1305 45.8627C22.3914 45.3458 24.2156 44.1084 24.8012 43.7189C26.4941 42.4196 27.7379 41.2494 28.8383 39.4968L29.0335 39.3021C31.1168 37.0928 33.917 34.5595 34.2418 31.5075C34.3731 30.0771 35.4787 28.7777 35.4787 27.2199C35.4787 26.4409 32.7441 25.6603 32.0237 25.6603C31.6316 25.6603 31.3725 25.855 30.9872 25.855C30.1408 25.855 29.163 25.6603 28.2509 25.6603C27.7966 25.6603 27.3406 25.9205 26.9502 25.9205C26.6893 25.9205 26.4941 25.7257 26.2989 25.7257C25.8429 25.7257 25.582 26.0497 25.126 26.0497C24.9251 26.0381 24.7274 25.9945 24.5404 25.9205C24.4108 25.9205 20.1129 26.6357 19.396 26.6994C17.8412 26.9596 15.941 27.2164 14.3863 27.2164C9.17802 27.2164 5.40351 24.4884 5.40351 19.4873C5.40351 17.602 7.48856 16.1079 7.48856 15.7839C7.48856 13.6401 22.3327 0 25.9154 0C28.5843 0 32.8823 3.57244 32.8823 6.68993C32.8823 7.98931 32.8166 10.2624 30.7333 10.2624C29.5604 10.2624 27.4114 9.09396 27.4114 7.92383C27.4114 7.72909 28.4479 6.37284 28.4479 5.2613C28.4479 4.80634 28.4479 3.24674 27.6653 3.24674C25.6477 3.24674 24.1499 4.93559 22.7179 5.97648C21.4154 6.95015 20.1129 7.72909 19.0056 8.76825C17.9691 9.74365 15.751 11.1723 14.5141 12.7957C12.8921 15.0084 7.94633 18.2551 7.94633 22.1533C7.94633 24.2316 10.0918 24.2971 11.8504 24.4315C12.2408 24.497 12.8264 24.6917 13.2825 24.6917C13.5433 24.6917 13.609 24.497 13.9337 24.4315C14.1627 24.5181 14.4057 24.5619 14.6506 24.5608C16.1483 24.5608 18.7516 23.5871 20.1198 23.5871C22.7248 23.5871 25.1294 23.1321 27.7379 23.1321C29.3012 23.1321 30.7972 23.1976 32.2949 23.5216C33.0118 23.6526 36.4633 25.4069 36.4633 26.1859C36.4633 26.3151 36.2025 26.1859 36.2025 26.4461C36.5272 26.8993 36.9194 27.3543 37.1785 27.8092L37.3098 27.68C37.7658 28.004 37.8954 28.4589 37.8954 28.9794C37.8954 29.4292 37.961 29.8186 37.961 30.2719ZM1.23686 47.6809C1.17122 47.6154 1.1073 47.6154 0.976017 47.6154L0.912101 47.6809C0.987871 47.7328 1.07978 47.7561 1.17122 47.7463L1.23686 47.6809ZM5.72827 55.0911C5.67151 55.0455 5.6008 55.0205 5.52788 55.0205L5.65744 55.2152L5.72827 55.0911ZM6.31388 53.273C6.24824 53.273 6.24824 53.273 6.24824 53.3368C6.31561 53.3316 6.31561 53.3316 6.31561 53.2679L6.31388 53.273ZM6.76993 54.9619C6.64037 54.8309 6.57473 54.7017 6.44517 54.5707L6.37952 54.7017C6.40776 54.8279 6.47626 54.9416 6.57473 55.0257L6.76993 54.9619ZM7.22598 53.8572V53.728L7.03078 53.7935L7.09469 53.9227L7.22598 53.8572ZM7.94633 52.9422L7.88242 52.8767L7.62157 52.9422L7.68721 53.0714C7.78476 53.0556 7.87516 53.0105 7.94633 52.9422ZM7.68721 53.6573V53.5919C7.62157 53.6573 7.62157 53.6573 7.62157 53.7211C7.61811 53.6573 7.61812 53.6573 7.68376 53.6573H7.68721ZM8.66323 54.5655C8.66323 54.4363 8.66323 54.176 8.40238 54.176C8.26405 54.19 8.13063 54.2347 8.01198 54.307C8.10993 54.5032 8.26863 54.6628 8.46457 54.762L8.65978 54.6982L8.66323 54.5655ZM8.20718 53.3971C8.24678 53.4283 8.27906 53.4677 8.30174 53.5127C8.32442 53.5577 8.33696 53.607 8.33847 53.6573C8.66323 53.3971 9.24884 53.4626 9.50969 53.0076C9.10596 53.0169 8.708 53.1054 8.33847 53.2679L8.20718 53.3971ZM8.79279 52.6182C8.79279 52.5527 8.79279 52.4872 8.72887 52.4872C8.66496 52.4872 8.65978 52.5527 8.65978 52.6182H8.79279ZM8.98281 14.7482C9.06591 14.7462 9.14672 14.7206 9.21584 14.6745C9.28496 14.6285 9.33953 14.5638 9.37322 14.488C9.24539 14.488 8.98281 14.5534 8.98281 14.7482ZM9.50105 53.0059C10.4132 53.0059 12.6917 52.1615 12.956 51.3808C12.1112 51.3825 10.0918 52.4872 9.50105 53.0076V53.0059ZM9.56669 14.357C9.82754 14.2915 9.89146 14.226 9.89146 14.0313L9.82754 13.9675C9.57188 13.9692 9.70144 14.2277 9.57188 14.3587L9.56669 14.357ZM9.83272 36.8394C9.96228 36.8394 10.4183 36.7102 10.4183 36.5809L10.2231 36.5155L9.83272 36.8394ZM9.83272 38.399C9.83272 38.2698 9.96228 38.1388 10.0918 38.0096C10.1575 38.1388 10.287 38.1388 10.4183 38.2043C10.2231 38.3336 10.0918 38.399 10.0279 38.5283C9.96228 38.5214 9.83272 38.4576 9.83272 38.3904V38.399ZM10.7431 51.6497H10.6792C10.7431 51.6497 10.8744 51.7152 10.8744 51.7806C10.8736 51.7455 10.8597 51.7119 10.8355 51.6864C10.8112 51.6609 10.7783 51.6453 10.7431 51.6428V51.6497ZM10.883 37.0273L11.0126 37.1583H11.2734L10.9383 36.8394L10.883 37.0273ZM11.5982 35.3384C11.4686 35.3384 11.2078 35.7296 11.0126 35.7934C11.2078 35.7296 11.6638 35.6641 11.6638 35.5349C11.6287 35.4738 11.6036 35.4074 11.5896 35.3384H11.5982ZM11.859 51.1241C12.0484 51.1168 12.2302 51.0484 12.3773 50.9293H12.246C12.1077 50.9423 11.9742 50.9865 11.8556 51.0586L11.859 51.1241ZM12.2494 36.7033C12.1838 36.7033 12.1838 36.7033 12.1199 36.6378C12.1199 36.3138 12.2494 36.4431 12.3807 36.3138C12.3721 36.3793 12.3721 36.7033 12.2408 36.7033H12.2494ZM22.1461 45.8627C22.1461 47.2914 20.0628 47.0312 20.0628 48.2651V48.4598C20.0628 48.7855 19.9988 49.0457 19.6067 49.0457C19.4655 48.9723 19.3111 48.9277 19.1524 48.9148C18.1746 48.9148 17.1986 49.8884 16.9378 50.6036L16.4817 50.4744C15.8075 50.6443 15.1528 50.8834 14.528 51.1878H14.3898C14.3241 51.1878 14.2602 51.1878 14.2602 51.1241C14.9754 50.0194 20.7054 47.8101 21.4223 46.1867C21.6186 46.0034 21.8699 45.8896 22.1374 45.8627H22.1461ZM15.3744 51.5773C15.2449 51.5135 15.2449 51.448 15.2449 51.3825H15.5057C15.4971 51.448 15.4314 51.5135 15.3744 51.5773ZM17.8499 31.6367H18.0451C18.0451 31.5712 17.9138 31.6367 17.9138 31.5075L17.8499 31.6367ZM19.0867 25.1415L18.8915 24.8813C18.6963 24.8813 18.4355 24.8813 18.4355 25.076C18.5029 25.1042 18.5621 25.1487 18.6077 25.2056C18.6532 25.2626 18.6837 25.33 18.6963 25.4018L19.0867 25.1415ZM20.8453 24.3609C20.5188 24.3609 20.258 24.6211 20.0628 24.8158C20.1284 24.9468 20.4532 25.076 20.714 25.076C20.9092 24.8813 21.1701 24.8158 21.2996 24.6211L20.8453 24.3609ZM26.7049 24.7521C26.7049 24.6866 26.8344 24.6211 26.8344 24.4918C26.8344 24.3626 26.8344 23.9076 26.5736 23.9076C26.3421 24.0118 26.103 24.0982 25.8584 24.1661C25.8584 24.1661 24.7511 23.9076 24.6855 23.9076C24.295 23.9076 24.0998 24.1661 24.0342 24.4918C23.7751 24.3609 23.4486 24.1024 23.1238 24.1024C22.9371 24.2429 22.706 24.312 22.4726 24.2971C22.3651 24.2688 22.2561 24.247 22.1461 24.2316L21.887 24.3609C22.0822 24.6211 22.6021 24.6211 22.863 24.6211C23.1038 24.6318 23.345 24.6098 23.5799 24.5556C23.7751 24.5556 23.9703 25.1415 24.3607 25.1415C24.6855 25.1415 25.0119 24.9468 25.3972 24.8813C25.5924 24.9468 25.7876 25.2053 25.9828 25.2053C26.3093 25.2053 26.2436 24.8158 26.5684 24.8158L26.7049 24.7521ZM23.7682 45.4716C23.8321 45.4716 23.8321 45.4716 23.8321 45.537V45.4716H23.7682ZM26.6323 42.9383L26.5027 42.809L26.4371 42.9383V43.0693C26.501 42.9383 26.501 42.9383 26.6306 42.9383H26.6323ZM26.698 40.2757H26.6323C27.0227 40.2103 28.9765 38.3922 29.303 38.0682L29.3669 38.1319C28.7139 38.8471 27.8674 40.2757 26.6962 40.2757H26.698ZM27.3492 42.2903L27.2836 42.1593C27.1956 42.2525 27.129 42.3637 27.0884 42.485L27.2836 42.5488L27.3492 42.2903ZM27.2836 24.0369C27.2836 24.1024 27.2836 24.1024 27.2179 24.1661L27.2836 24.2316V24.0369ZM28.4565 24.2971C28.4565 24.0369 28.2596 23.8421 27.9383 23.8421C27.7431 23.8421 27.6118 23.9076 27.6118 24.1024C27.6118 24.3609 27.6774 24.6866 27.9383 24.6866C28.1283 24.6866 28.4548 24.4315 28.4548 24.2971H28.4565ZM32.751 37.3564C31.8389 38.2664 28.3891 41.7733 27.8674 42.747L27.9987 42.9417C29.4308 42.9417 30.1477 40.0845 31.1894 39.8897C31.6437 39.0453 32.0997 38.7196 32.8823 37.5512L32.751 37.3564ZM27.8674 41.6441C27.9331 41.5786 27.9331 41.5786 27.9987 41.5786C27.9987 41.5131 27.9987 41.5131 27.9331 41.5131L27.8674 41.5786V41.6441ZM28.5187 41.3183C29.0369 41.1891 29.17 40.7341 29.4308 40.4084C29.4308 40.2137 29.4308 40.2137 29.3012 40.1499C29.0404 40.1499 28.7139 40.9944 28.5187 41.1839V41.3183ZM30.8629 24.2351C30.7333 23.8456 29.8869 23.8456 29.3082 23.8456C28.7295 23.8456 28.7208 24.0403 28.5913 24.3626C28.5913 24.5573 28.6569 24.6228 28.7865 24.6228C29.1112 24.6228 29.4377 24.3626 29.8229 24.3626C30.0181 24.3626 30.1494 24.6228 30.279 24.6228C30.602 24.5556 30.7333 24.4918 30.8629 24.2316V24.2351ZM30.0164 39.4348L30.1477 39.5002V39.4244L30.0821 39.2297L30.0164 39.4348ZM30.1477 37.1617V36.967C30.1477 36.9015 30.2116 36.836 30.2773 36.7722V37.0307L30.1477 37.1617ZM30.5381 38.9074L30.602 38.9729C30.6677 38.9074 30.7333 38.9074 30.7333 38.7782V38.6489C30.6677 38.6524 30.602 38.7816 30.5381 38.9074ZM31.2533 38.3232C31.5141 38.0647 31.7093 38.1285 31.7093 37.6735L31.5798 37.5443C31.4485 37.739 31.3846 37.9992 31.1894 38.194L31.2533 38.3232ZM32.231 34.6215C32.1654 34.7508 32.0358 34.7508 31.9045 34.8817V34.7508C31.9095 34.6762 31.9294 34.6033 31.9629 34.5365C31.9964 34.4696 32.0429 34.4101 32.0997 34.3613L32.231 34.6215ZM32.8823 33.7116L32.8166 33.6461L32.9462 33.3221L33.0775 33.4514L32.8823 33.7116ZM36.0712 31.9573C36.0644 31.906 36.0733 31.8539 36.0968 31.8078C36.1202 31.7617 36.157 31.7237 36.2025 31.6988L36.0712 31.504C35.8175 31.7945 35.5788 32.0976 35.356 32.4122C35.6253 31.937 35.7813 31.4063 35.8121 30.8612C35.8121 30.601 35.7464 30.2115 35.5512 30.0168C35.4199 30.1131 35.3152 30.2411 35.2469 30.3888C35.1786 30.5365 35.149 30.699 35.1608 30.8612C35.1608 32.1606 33.2727 34.4974 33.2727 35.2126C33.2727 35.5383 33.7909 35.4728 33.7909 35.6021C33.7909 36.1191 33.1397 36.3828 33.1397 37.0307C34.0535 35.8589 36.0712 33.3256 36.0712 31.9607V31.9573ZM35.1522 32.8672C34.8257 33.5824 34.4353 34.2958 34.0449 35.011C34.0535 34.6887 35.0295 33.1963 35.1608 32.8758L35.1522 32.8672ZM35.3474 32.4122C35.2707 32.5587 35.2055 32.7108 35.1522 32.8672L35.3474 32.4122ZM36.0625 30.0099C36.0625 29.9444 35.9986 29.8789 35.9986 29.8152C35.995 29.8515 35.9996 29.8882 36.0122 29.9225C36.0248 29.9569 36.0449 29.9879 36.0712 30.0134L36.0625 30.0099Z" fill="#F08A5D"></path> <path d="M58.9273 33.5859C57.2344 35.7297 55.0198 37.6133 52.8069 39.1712C52.1556 39.6261 50.0706 40.4706 49.941 41.1203L50.2675 41.2495L49.7493 41.6407L49.8149 41.7045C50.6614 41.5097 51.1174 40.9255 51.8326 40.6015L52.6152 40.9255C52.2838 41.2531 51.9117 41.5369 51.5079 41.7699L51.767 41.9647C51.1814 42.2904 50.6614 42.6799 50.0741 43.0693C49.6836 43.3295 45.9731 44.6203 45.5827 44.6203C41.8703 44.6203 38.8749 42.8022 38.8749 40.0742C38.8749 38.1251 39.0062 35.5281 40.0479 33.7737C39.8527 33.9685 40.96 32.6691 40.96 31.7592C40.96 29.8118 45.517 24.6143 46.8195 23.1856C47.7955 22.081 49.098 21.757 50.6614 21.757C53.1351 21.757 55.0889 23.5751 55.0889 25.7844C55.0889 29.0311 53.852 28.5124 53.4616 29.8118C52.6756 32.221 47.9873 34.4269 45.384 34.4269C44.9936 34.4269 44.6671 34.3614 44.2767 34.3614C43.3646 34.3614 43.1037 37.2186 42.6494 37.5444V37.8046C42.6494 38.518 42.4525 40.1431 42.4525 40.7342C42.4525 41.3839 42.4525 43.2675 43.489 43.2675C49.8685 43.2675 52.4718 36.5776 57.0323 34.4338C57.5505 34.1735 58.587 33.6531 58.6595 33.1344L58.9273 33.5859ZM39.7836 38.132C39.7668 38.0345 39.7217 37.944 39.654 37.8718L39.5884 38.132H39.7836ZM39.7836 36.8981L39.7179 37.1583C39.7078 37.2704 39.7306 37.383 39.7836 37.4823C39.8237 37.4516 39.8564 37.4123 39.8791 37.3672C39.9018 37.3222 39.9141 37.2725 39.9148 37.2221C39.9148 37.1583 39.7836 36.9636 39.7836 36.8981ZM40.5005 35.6642C40.5005 35.5987 40.5005 35.3385 40.3692 35.3385C40.2379 35.3385 40.0444 36.1829 39.9148 36.3139C39.9148 36.4432 39.9148 36.5741 40.0444 36.6379C40.1295 36.2861 40.2845 35.955 40.5005 35.6642ZM40.3053 38.263C40.315 38.1712 40.2917 38.079 40.2396 38.0028C39.9788 38.0028 39.9148 38.263 39.9148 38.3922C39.9177 38.4429 39.9392 38.4908 39.9752 38.5267C40.0112 38.5626 40.0592 38.5841 40.1101 38.587C40.1101 38.5215 40.3053 38.3267 40.3053 38.263ZM40.63 35.0145L40.5644 34.949H40.63L40.5644 34.8853V35.0145H40.63ZM40.9565 34.2993L40.8909 34.1701L40.63 34.2993V34.625L40.7613 34.5596L40.9565 34.2993ZM41.2156 37.6133L41.0204 37.5478V37.808L41.2156 37.6133ZM42.4525 30.0772L42.3886 29.9479C42.2656 30.0498 42.175 30.1851 42.1277 30.3374H42.2573C42.3886 30.2719 42.3886 30.1427 42.4525 30.0772ZM42.3886 30.5322L42.1277 30.6631L42.1934 30.8579L42.4525 30.6631C42.4525 30.5976 42.3886 30.5976 42.3886 30.5322ZM42.5838 34.2993C42.5013 34.4128 42.4555 34.5487 42.4525 34.6888L42.5838 34.625V34.2993ZM42.7133 30.8527L42.779 30.9819C42.8446 30.9165 42.9085 30.9165 42.9085 30.8527H42.7133ZM44.6671 32.6708C44.6671 32.8 44.6671 33.1878 44.9279 33.1878C45.2527 33.1878 46.4827 32.5381 46.8161 32.3434C47.5312 32.3434 51.8948 29.0294 51.9604 28.5107C52.09 27.73 52.5461 26.9511 52.5461 26.1721C52.5461 25.6552 52.4148 23.3132 51.5096 23.3132C49.5558 23.3132 47.146 29.0949 45.9817 29.9393C45.7208 30.7183 45.2648 31.8229 44.6792 32.4071L44.6671 32.6708ZM50.2693 42.3541C50.3184 42.3613 50.3639 42.3843 50.3988 42.4196C50.6597 42.4196 51.1157 42.0939 51.2453 42.0302L51.1796 41.8992C50.7236 41.8992 50.6614 42.2904 50.3332 42.2904L50.2693 42.3541ZM52.6773 27.2199C52.6773 27.4147 52.743 27.6749 52.9382 27.6749C53.3375 27.1297 53.6251 26.5113 53.7846 25.8551L53.8503 25.7258L53.6551 25.6603C53.4582 25.6603 52.6756 27.0252 52.6756 27.2199H52.6773ZM56.9753 33.9754C57.2361 33.7151 57.6265 33.5204 57.8874 33.2602C57.8217 33.6496 57.3 33.9754 56.9753 34.0408V33.9754ZM58.3417 33.1309C58.2121 33.1964 58.0169 33.1964 57.8874 33.2602C58.1465 33.1309 58.0169 33.0654 58.3417 33.0654V33.1309Z" fill="#F08A5D"></path> <path d="M68.8241 9.03198C67.3903 11.5067 65.8286 17.0213 65.1774 19.8803C64.9822 20.7247 64.3309 21.8276 64.2653 22.6083C64.2653 23.0633 63.9405 25.7913 63.4188 25.7913C63.2236 25.7913 63.2236 25.6603 63.2236 25.6603L63.0284 25.855C63.0284 26.0498 63.2236 26.0498 63.3532 26.1807C63.158 27.0252 62.2476 29.5585 62.2476 30.4666C62.2433 30.5021 62.2467 30.538 62.2578 30.5719C62.2688 30.6059 62.2872 30.637 62.3115 30.6631C62.1163 31.2473 61.9868 31.3766 61.9868 31.8315C61.9825 32.0283 62.0046 32.2248 62.0524 32.4157L61.6603 32.8052C61.6603 32.9999 61.7259 33.1964 61.7259 33.4549C61.7259 34.4303 60.6894 37.808 60.6894 39.1074C60.6894 39.3021 60.6894 39.4314 60.7551 39.4969C60.3647 39.8208 60.299 40.405 60.299 40.9255V41.5097C60.299 42.8091 60.3647 45.3424 60.8846 46.1213C61.0159 46.3815 61.275 46.316 61.4029 46.447C61.662 46.771 62.1837 47.7464 62.7054 47.7464C64.0062 47.7464 65.9599 45.0821 66.6112 44.8874L66.6768 45.1476C65.6403 47.4862 64.9839 49.0458 61.4029 49.0458C57.4954 49.0458 56.5832 45.3424 56.5832 43.1331C56.5832 42.6161 56.6489 42.0991 56.6489 41.5821C56.6489 41.1271 56.5832 40.6722 56.5832 40.2172C56.5832 39.8277 57.0393 39.1832 57.1015 38.7886C57.231 37.1652 57.5575 35.6711 57.8823 34.0477L57.8184 33.9822C58.6648 31.2542 59.5752 27.7455 59.5752 27.2268C59.5752 26.2531 61.3994 21.3158 61.6585 19.627C61.985 18.0673 62.1768 16.3147 62.7658 14.8206C63.4827 13.0663 63.8732 13.9107 64.3206 11.1827L64.1893 11.0534C64.3845 9.81781 64.9062 8.58391 65.3622 7.47926C66.7943 6.50559 65.8183 4.36178 68.8776 4.36178C69.8554 4.36178 70.1801 5.14244 70.1801 5.92138C70.1905 6.75891 68.8241 8.25304 68.8241 9.03198ZM58.4714 39.4245H58.5353C58.5039 39.3633 58.4823 39.2976 58.4714 39.2297C58.4714 37.6064 59.4474 32.9293 59.9034 31.1094L59.6426 31.3697H59.5769C59.6426 30.265 60.4234 29.0966 60.7499 28.0574C61.5307 25.1278 62.1163 22.2757 63.2236 19.4184C63.8092 17.8588 64.6557 16.3009 65.1774 14.7413C64.8509 14.8706 62.2407 20.7816 62.182 21.4968C62.1163 21.4968 62.1163 21.302 62.1163 21.2365C62.1163 19.8079 65.5712 12.5975 66.0895 8.76486L65.9582 8.63561C65.763 9.02508 64.9217 10.4537 64.9217 10.7139H64.9874C63.3584 15.0016 62.448 19.4184 60.9503 23.7061C60.7593 24.1636 60.6281 24.6438 60.5599 25.1347C60.3647 26.1687 58.2157 34.0339 58.2157 34.613V34.6767C57.4907 36.6769 57.1161 38.7865 57.1084 40.9134C57.0869 41.7381 57.1302 42.5633 57.238 43.3812C57.227 43.4491 57.2055 43.5148 57.174 43.576C57.174 43.8362 57.238 44.0309 57.238 44.2256L57.3692 43.9017C57.3692 43.8362 57.3036 43.7707 57.3036 43.6414C57.3036 43.0572 57.4988 42.4075 57.5645 41.8233C57.5645 42.6678 57.5644 43.576 57.8253 44.3566C57.9549 44.1619 58.2157 43.6414 58.2157 43.4467C58.2157 43.121 58.0205 42.8625 58.0205 42.5368C58.0205 42.0198 58.4766 42.0198 58.4766 41.6924C58.4766 41.4321 58.1501 41.7579 58.1501 41.3029C58.4765 41.0427 58.4765 40.5894 58.6683 40.1982L58.537 39.8088L58.3418 39.9397L58.4714 39.4245ZM58.2105 40.7325H58.3401C58.3401 40.798 58.3401 40.7325 58.2105 40.798V40.7325ZM58.6666 35.6659C58.6009 35.8606 58.4714 36.0554 58.4057 36.2501C58.4057 36.3156 58.4714 36.3811 58.4714 36.5103C58.4646 36.5595 58.4415 36.605 58.4057 36.6396C58.3401 36.5758 58.3401 36.4448 58.3401 36.3156C58.3401 36.1209 58.4057 35.5367 58.6009 35.4057L58.6666 35.6659ZM58.5353 43.7845L58.6666 43.85H58.7961L58.6666 43.6552L58.5353 43.7845ZM59.2522 32.9999C58.9376 33.631 58.7392 34.3134 58.6666 35.0145C58.6666 34.494 58.6666 33.3928 59.2522 32.9999ZM58.7339 38.7817C58.8359 38.7068 58.9187 38.6089 58.9754 38.496C59.0322 38.383 59.0613 38.2583 59.0604 38.132C59.0604 38.132 59.0604 37.9372 58.9291 37.9372C58.8476 38.0113 58.7825 38.1015 58.7378 38.2021C58.6932 38.3027 58.6701 38.4115 58.67 38.5215L58.7339 38.7817ZM59.8412 41.315L59.4508 41.8319C59.3852 41.8319 59.2556 41.7665 59.2556 41.701C58.9291 41.701 58.9291 42.2869 58.9291 42.6109V42.9349C58.9291 43.2606 59.1243 44.56 59.646 44.56C59.8412 44.56 59.8412 44.3652 59.8412 44.2997C59.7394 44.1712 59.6928 44.0076 59.7117 43.8448V43.3278L59.5165 43.3916C59.4565 43.3615 59.4064 43.3152 59.3718 43.2578C59.3372 43.2004 59.3197 43.1345 59.3213 43.0676C59.3213 42.9366 59.9069 41.7027 60.0365 41.5735C60.033 41.4442 60.033 41.3804 59.8378 41.3201L59.8412 41.315ZM60.1021 40.0156L60.0365 39.8208C60.1021 39.7571 60.1021 39.6916 60.1021 39.5606H59.8412C59.8412 39.3021 60.1021 39.2366 60.1021 39.1074C60.1021 38.9781 59.7117 38.8472 59.7117 38.263C59.4508 38.263 59.3213 39.4968 59.2556 39.6916V40.2758C59.2556 40.7308 59.2556 41.2495 59.3852 41.2495L59.5165 41.1857C59.5114 41.0058 59.4665 40.8293 59.3852 40.6687L59.5165 40.5395C59.7117 40.5395 59.646 40.7997 59.8412 40.9944L60.1021 40.0156ZM59.3213 45.0132L59.3852 44.9477C59.3213 44.9477 59.3213 44.9477 59.3213 44.8822C59.2556 44.8822 59.2556 44.8822 59.2556 44.9477C59.2556 45.0132 59.2522 45.0184 59.3178 45.0184L59.3213 45.0132ZM59.3213 45.4664C59.3213 45.4027 59.3852 45.4027 59.3852 45.3372C59.3178 45.4078 59.3178 45.4079 59.3178 45.4716L59.3213 45.4664ZM59.9708 35.3988C59.8412 35.3988 59.5804 35.3988 59.5165 35.5298C59.5804 35.5298 59.8412 35.659 59.9069 35.659C60.1021 35.659 60.0365 35.5298 60.1021 35.3988H59.9708ZM59.5804 36.0485V36.114C59.646 36.114 59.646 36.114 59.646 36.0485H59.5804ZM59.8412 37.9976L59.9708 37.6081L59.9069 37.5426L59.5804 37.8028L59.8412 37.9976ZM59.7117 42.6747L59.5804 42.8694C59.6692 42.8556 59.7565 42.8337 59.8412 42.8039L59.7117 42.6747ZM59.646 33.9702L59.7117 34.0356C59.8412 34.0356 59.8412 33.9702 59.8412 33.9702V33.7754L59.646 33.9702ZM59.7117 46.6366C59.8412 46.6366 59.8412 46.5711 59.8412 46.5711H59.7117C59.7117 46.5711 59.8412 46.5711 59.8412 46.5073L59.7117 46.6366ZM60.1021 34.0356C60.0177 34.0922 59.9494 34.1694 59.9037 34.26C59.858 34.3506 59.8365 34.4514 59.8412 34.5526C59.9708 34.5526 60.1021 34.2287 60.166 34.0977L60.1021 34.0356ZM60.3629 35.3333V35.5298C60.3629 35.7883 59.9708 35.983 59.9069 36.2432L59.9708 36.5034C59.8412 36.5689 59.8412 36.6982 59.8412 36.8274L59.9708 37.0222C60.6877 36.3742 60.9486 35.3333 60.9486 34.7491C60.9486 34.5544 60.6221 34.4889 60.3629 34.4889C60.3284 34.8047 60.2402 35.1125 60.1021 35.3988L60.3629 35.3333ZM61.2733 25.2657C61.0781 25.7827 60.3629 28.5779 60.0365 28.8381C60.2973 27.5387 60.5547 26.4358 61.0729 25.2002L61.2733 25.2657ZM60.1021 37.6736V37.7391C60.1021 37.8045 60.166 37.8683 60.2973 37.8683L60.5581 37.6098L60.3629 37.4788L60.1021 37.6736ZM60.2887 47.4862C60.223 47.5517 60.0935 47.5517 60.0935 47.6809L60.223 47.7464L60.3543 47.6154L60.2887 47.4862ZM60.2887 37.2876L60.4182 37.0928L60.2887 36.8395L60.1574 37.0997L60.2887 37.2876ZM60.8743 29.5585L60.7447 29.4275C60.7073 29.4615 60.6839 29.5082 60.6791 29.5585L60.7447 29.6877L60.8743 29.5585ZM61.2008 31.897L61.2647 31.6368V31.5713C60.9399 31.7023 60.7464 32.0883 60.6791 32.352L60.7447 32.4812C60.9491 32.3168 61.1243 32.1194 61.263 31.897H61.2008ZM60.6825 33.7151C60.7482 33.7151 60.7482 33.6496 60.7482 33.5859C60.6842 33.5859 60.6842 33.5859 60.6842 33.7151H60.6825ZM61.009 24.8814C61.0792 24.7609 61.1665 24.6512 61.2681 24.5557C61.2764 24.6236 61.262 24.6925 61.227 24.7514C61.192 24.8103 61.1384 24.856 61.0747 24.8814H61.009ZM61.2042 28.328C61.3338 28.1333 61.4633 27.811 61.5946 27.6783C61.4633 27.4836 61.529 27.2888 61.3994 27.1613C61.2681 27.487 61.2042 27.942 61.009 28.266L61.2042 28.328ZM61.2042 33.1343V33.4583L61.2681 33.3946L61.2042 33.1343ZM61.3994 32.4192L61.2681 32.3554V32.4192H61.3994ZM61.4633 30.4063C61.4633 30.3408 61.4633 30.3408 61.529 30.3408H61.3338C61.4011 30.4029 61.4012 30.4029 61.4651 30.4029L61.4633 30.4063ZM61.9194 30.6666L61.7898 30.2754L61.529 30.6011C61.529 30.7303 61.6585 30.7303 61.7242 30.7303H61.7898L61.9194 30.6666ZM61.529 31.4455L61.5946 31.38H61.529V31.4455ZM61.9194 29.8221C62.1146 29.7566 62.1146 29.6912 62.1146 29.4964C62.1146 29.3017 62.1146 29.0415 61.985 28.9794C61.7898 29.0432 61.7898 29.4964 61.5946 29.6929L61.9194 29.8221ZM61.7898 28.652C61.7242 28.7175 61.7242 28.7175 61.7242 28.7812L61.7898 28.7175V28.652ZM62.1889 27.8041C61.9937 27.8041 61.7985 28.1936 61.7985 28.3211C62.0593 28.3211 62.1889 28.2556 62.2545 28.0609L62.1889 27.8041ZM61.9937 21.9586L62.1232 21.7639C62.1232 21.8276 62.0593 22.1533 62.0593 22.2188L61.9937 21.9586ZM62.1232 24.4919L62.1889 24.6211C62.3841 24.3609 62.5154 24.1041 62.7071 23.8422C62.4463 23.6475 62.4463 23.582 62.4463 23.3252C62.3115 23.7129 62.3115 24.1662 62.1163 24.4919H62.1232ZM62.3184 26.9597C62.2545 26.9597 62.1889 27.0907 62.1232 27.1544L62.3841 27.2199L62.4497 27.0907L62.3184 26.9597ZM62.3841 26.6995L62.5154 26.6357C62.4895 26.6109 62.4584 26.5921 62.4243 26.5808C62.3902 26.5695 62.3541 26.5659 62.3184 26.5702C62.3772 26.5702 62.3772 26.6357 62.3772 26.6995H62.3841ZM62.9023 23.3218V23.258L62.7071 23.3218L62.8367 23.4527L62.9023 23.3218ZM62.9662 22.0241C62.8367 22.0241 62.771 22.0879 62.771 22.2826H62.8367C62.9662 22.2826 62.9662 22.1533 63.0319 22.0241H62.9662ZM62.771 25.1416C62.8367 25.1416 62.8367 25.1416 62.8367 25.2053C62.9023 25.2053 62.9023 25.2053 62.9023 25.1416H62.771ZM62.9662 21.4382C62.9748 21.4942 62.9971 21.5473 63.0312 21.5927C63.0652 21.6381 63.11 21.6744 63.1614 21.6984L63.4223 21.5691C63.2271 21.5691 63.2271 21.2434 63.2271 21.0521V20.7919C63.0284 20.7885 62.9628 21.3089 62.9628 21.4382H62.9662ZM63.4223 19.944H63.4879C63.6175 19.944 63.7488 19.4271 63.7488 19.2944L63.4223 19.944ZM64.6591 13.6436C64.9856 13.1886 65.6956 11.76 65.6956 11.305C65.243 11.436 64.8509 13.1886 64.6557 13.6436H64.6591Z" fill="#F08A5D"></path> <path d="M85.0999 33.5859C83.407 35.7297 81.1941 37.6133 78.9795 39.1712C78.3282 39.6261 76.2449 40.4706 76.1154 41.1203L76.4401 41.2495L75.9219 41.6407L75.9858 41.7045C76.8323 41.5097 77.2883 40.9255 78.0052 40.6015L78.786 40.9255C78.4547 41.2531 78.0825 41.5369 77.6787 41.7699L77.9396 41.9647C77.3539 42.2904 76.8323 42.6799 76.2466 43.0693C75.8562 43.3295 72.1457 44.6203 71.7552 44.6203C68.0447 44.6203 65.0492 42.8022 65.0492 40.0742C65.0492 38.1251 65.1788 35.5281 66.2222 33.7737C66.0252 33.9685 67.1325 32.6691 67.1325 31.7592C67.1325 29.8118 71.6913 24.6143 72.9921 23.1856C73.9699 22.081 75.2724 21.757 76.834 21.757C79.3094 21.757 81.2615 23.5751 81.2615 25.7844C81.2615 29.0311 80.0246 28.5124 79.6342 29.8118C78.8499 32.221 74.1616 34.4269 71.5566 34.4269C71.1662 34.4269 70.8414 34.3614 70.451 34.3614C69.5389 34.3614 69.2781 37.2186 68.822 37.5444V37.8046C68.822 38.518 68.6268 40.1431 68.6268 40.7342C68.6268 41.3839 68.6268 43.2675 69.6633 43.2675C76.0445 43.2675 78.6461 36.5776 83.2066 34.4338C83.7248 34.1735 84.77 33.6531 84.8356 33.1344L85.0999 33.5859ZM65.9579 38.132C65.9411 38.0342 65.8954 37.9435 65.8266 37.8718L65.7627 38.132H65.9579ZM65.9579 36.8981L65.8922 37.1583C65.8821 37.2704 65.9049 37.383 65.9579 37.4823C65.9972 37.451 66.0291 37.4114 66.0515 37.3665C66.0739 37.3215 66.0861 37.2723 66.0874 37.2221C66.0874 37.1583 65.9579 36.9636 65.9579 36.8981ZM66.673 35.6642C66.673 35.5987 66.673 35.3385 66.5435 35.3385C66.4139 35.3385 66.2187 36.1829 66.0874 36.3139C66.0874 36.4432 66.0874 36.5741 66.2187 36.6379C66.3045 36.2854 66.4615 35.9541 66.68 35.6642H66.673ZM66.4778 38.263C66.4873 38.1715 66.4647 38.0795 66.4139 38.0028C66.1531 38.0028 66.0874 38.263 66.0874 38.3922C66.0907 38.4428 66.1123 38.4905 66.1482 38.5263C66.1842 38.5622 66.2319 38.5837 66.2826 38.587C66.2826 38.5215 66.4778 38.3267 66.4778 38.263ZM66.8043 35.0145L66.7387 34.949H66.8043L66.7387 34.8853V35.0145H66.8043ZM67.1291 34.2993L67.0652 34.1701L66.8043 34.2993V34.625L66.9339 34.5596L67.1291 34.2993ZM67.3899 37.6133L67.1947 37.5478V37.808L67.3899 37.6133ZM68.6268 30.0772L68.5612 29.9479C68.4387 30.0499 68.3486 30.1852 68.302 30.3374H68.4316C68.5612 30.2719 68.5612 30.1427 68.6268 30.0772ZM68.5612 30.5322L68.302 30.6631L68.366 30.8579L68.6268 30.6631C68.6268 30.5976 68.5612 30.5976 68.5612 30.5322ZM68.7529 34.2993C68.6721 34.4136 68.6271 34.5491 68.6234 34.6888L68.7529 34.625V34.2993ZM68.8842 30.8527L68.9498 30.9819C69.0138 30.9165 69.0794 30.9165 69.0794 30.8527H68.8842ZM70.838 32.6708C70.838 32.8 70.838 33.1878 71.0988 33.1878C71.4236 33.1878 72.6535 32.5381 72.9852 32.3434C73.7021 32.3434 78.0657 29.0294 78.1296 28.5107C78.2609 27.73 78.7152 26.9511 78.7152 26.1721C78.7152 25.6552 78.5856 23.3132 77.6787 23.3132C75.7267 23.3132 73.3169 29.0949 72.1508 29.9393C71.89 30.7183 71.4339 31.8229 70.8483 32.4071L70.838 32.6708ZM76.4401 42.3541C76.4899 42.3611 76.536 42.3841 76.5714 42.4196C76.8305 42.4196 77.2866 42.0939 77.4179 42.0302L77.3522 41.8992C76.8962 41.8992 76.834 42.2904 76.5058 42.2904L76.4401 42.3541ZM78.8499 27.2199C78.8499 27.4147 78.9156 27.6749 79.1108 27.6749C79.5093 27.1292 79.7969 26.511 79.9572 25.8551L80.0212 25.7258L79.826 25.6603C79.6359 25.6603 78.8499 27.0252 78.8499 27.2199ZM83.1479 33.9754C83.407 33.7151 83.7991 33.5204 84.0582 33.2602C83.9943 33.6496 83.4726 33.9754 83.1479 34.0408V33.9754ZM84.5143 33.1309C84.3847 33.1964 84.1895 33.1964 84.0582 33.2602C84.3191 33.1309 84.1895 33.0654 84.5143 33.0654V33.1309Z" fill="#F08A5D"></path> <path d="M102.876 40.4705L103.071 40.6015C103.075 40.5339 103.104 40.4703 103.152 40.4224C103.2 40.3745 103.264 40.3457 103.332 40.3413C103.722 40.3413 104.829 38.9764 105.154 38.9109H105.286C105.154 39.1711 104.634 40.081 104.634 40.3413V40.405C104.643 40.405 104.651 40.4067 104.659 40.41C104.667 40.4133 104.674 40.4182 104.68 40.4243C104.686 40.4304 104.691 40.4376 104.694 40.4456C104.697 40.4535 104.698 40.462 104.698 40.4705L104.764 40.536C103.266 42.5488 101.378 44.4324 99.4243 46.1868H99.2291C98.587 46.5252 97.872 46.7026 97.1457 46.7038C94.8672 46.7038 93.24 45.5336 93.1087 43.3898C93.1087 43.1296 93.1087 42.8056 92.9135 42.6109L93.1104 42.3541L93.176 42.5488V42.6798C93.2417 42.6798 93.3056 42.5488 93.3056 42.4851C93.3056 42.3541 93.2417 42.2903 93.2417 42.2248L93.3056 42.0939C93.176 42.0301 92.9808 41.8354 92.9808 41.7044C93.0092 41.1979 93.0968 40.6965 93.2417 40.2103L93.3712 40.405C93.4369 40.2103 93.4369 40.0155 93.5008 39.8208L93.4369 39.757C93.3754 39.7881 93.3096 39.8096 93.2417 39.8208C93.176 39.8208 93.176 39.6916 93.176 39.6916C93.2502 39.6751 93.3165 39.6338 93.364 39.5745C93.4114 39.5153 93.4371 39.4417 93.4369 39.3659C93.4369 39.1711 93.3712 38.9109 93.3712 38.7816C93.4369 38.6524 93.4369 38.3922 93.696 38.3922L94.0225 38.5214C93.696 38.9109 93.9569 39.3021 93.696 39.6916L94.2142 40.1465C94.2142 39.8863 94.2799 39.6295 94.2799 39.3659V39.3021L94.0847 39.4313L94.019 39.3021C94.0964 38.8766 94.274 38.4755 94.5373 38.132C94.5373 37.9372 94.2125 38.0027 94.2125 37.7425C94.2125 37.0928 94.5373 36.2484 94.7981 35.5987L94.6029 35.5349L94.3421 35.7934C94.2782 35.7934 94.2782 35.7296 94.2782 35.5987C94.2782 35.1437 94.6029 34.7543 94.6029 34.494V34.3648C94.6029 33.9753 94.8638 33.5204 94.9933 33.1309C94.9824 33.063 94.9608 32.9973 94.9294 32.9361C94.9294 32.0917 95.3837 31.1163 95.7102 30.4029C95.6954 30.2848 95.6501 30.1726 95.5789 30.0772C95.8398 29.8187 96.0972 29.493 96.0972 29.1035C96.0972 28.9742 95.9676 28.8433 95.9676 28.714C95.9661 28.6469 95.9837 28.5807 96.0182 28.5231C96.0527 28.4655 96.1029 28.4188 96.1628 28.3883C96.1628 27.9351 96.2924 27.4801 96.2924 27.0252L96.0315 26.9597C94.5995 28.6485 93.233 30.4063 91.8649 32.1572C90.8284 32.1572 86.0693 44.6926 83.9859 44.6926C82.2291 44.6926 82.1635 43.3933 81.9026 43.3933C81.7731 43.4587 81.773 43.4587 81.7074 43.4587C81.5122 43.4587 81.3826 43.3295 81.3826 43.264C81.3826 41.6406 82.2291 40.1465 82.293 38.9109C82.4243 37.7425 83.1395 36.5741 83.1395 35.5349V35.4039C83.3347 34.7543 83.5299 34.3699 83.5299 33.7151V33.4549C84.2468 32.2865 83.8564 31.3765 84.3124 30.6631C84.3124 30.1461 85.4836 26.5047 85.8101 26.0498C85.803 26.0007 85.7799 25.9553 85.7445 25.9205C85.7445 25.4035 86.2627 24.9468 86.8518 24.9468C87.1109 24.9468 87.567 25.2708 87.8278 25.4638L88.2839 25.7895C88.4791 26.2445 88.6743 26.6977 88.6743 27.2182C88.6743 27.6076 88.4791 27.8679 88.4791 28.2522C88.4825 28.3425 88.5049 28.4312 88.5447 28.5124C88.0887 29.1621 88.2182 30.0634 87.8935 30.7854C87.8935 30.8509 87.9591 30.9147 87.9591 30.9802C87.9591 31.5644 87.6326 32.2141 87.3718 32.7345C87.3718 32.993 87.4374 33.2515 87.4374 33.5135C87.1109 33.7082 87.047 34.0977 87.047 34.4234C87.0399 34.6202 87.0614 34.8169 87.1109 35.0076C87.7622 34.6819 89.652 31.1749 90.1063 30.9802L90.0424 30.9147C90.3672 30.3977 93.8187 25.8481 93.8843 25.8481L93.8186 25.7844C94.5542 25.1266 95.2099 24.3851 95.7724 23.5751C96.2906 22.9909 96.4876 21.9517 97.4653 21.9517C97.9197 21.9517 98.6366 22.0172 99.0926 22.3412C99.2349 22.204 99.4156 22.1133 99.6108 22.0809C100.328 22.0809 100.457 22.5359 100.457 23.0563C100.439 23.6701 100.352 24.28 100.198 24.8745L100.02 25.531V25.7913C99.7594 26.0498 99.369 27.6748 99.2377 28.0643L99.1081 29.038V29.1035C99.1081 31.1818 96.5688 36.0536 96.5688 38.7162C96.5688 39.1711 96.3079 39.4968 96.3079 39.8863C96.3031 39.998 96.3257 40.1092 96.3736 40.2103C96.3001 40.3518 96.2555 40.5064 96.2423 40.6652C96.2423 40.86 96.3079 41.1202 96.3079 41.5752C96.3079 42.7436 96.3079 44.6272 96.8935 44.6272C97.5448 44.6272 100.084 42.1594 100.606 42.1594H100.67C101.387 42.1594 102.624 40.1465 103.08 40.0155C103.015 40.0722 102.963 40.1421 102.928 40.2207C102.892 40.2992 102.875 40.3845 102.876 40.4705ZM82.0408 42.4851C82.9512 42.0301 83.212 39.3659 83.2777 38.4577C83.3416 37.7425 84.5784 32.7414 84.8324 31.9607V31.897C83.922 33.2601 84.2468 33.7151 83.922 34.7542C83.6612 35.2712 83.1395 38.132 82.8147 38.2629C82.4243 39.2366 81.9683 41.0547 81.9683 42.1594C81.9752 42.2903 82.0408 42.3541 82.0408 42.4851ZM83.7337 39.4313C83.7337 39.4968 83.6681 39.5606 83.6681 39.6261L83.8633 39.4968L83.7337 39.4313ZM85.1001 30.8578C84.9049 30.9216 84.8393 31.3128 84.8393 31.442C84.9286 31.3906 85.0008 31.3143 85.0472 31.2224C85.0935 31.1306 85.1119 31.0272 85.1001 30.925V30.8578ZM94.2142 36.7688C94.2142 37.0273 94.0847 37.8717 93.696 37.8717C93.5008 37.8717 93.5664 37.4185 93.5008 37.2875C93.62 36.9429 93.8486 36.6464 94.1521 36.4431C94.1469 36.5741 94.216 36.6378 94.216 36.7688H94.2142ZM93.563 41.7044L93.6286 41.7699C93.8238 41.7699 93.8238 41.1857 93.8238 41.0547V40.6652C93.563 40.86 93.563 41.1822 93.563 41.4442V41.7044ZM93.563 43.3295H93.6286L93.563 43.264V43.3295ZM93.6286 34.2993C93.6286 32.8052 95.4511 28.5193 95.5807 28.5193H95.712C95.7137 29.169 94.0864 33.9098 93.6286 34.2993ZM94.2799 36.0536L94.3438 36.1191C94.3039 36.2408 94.2366 36.3516 94.1469 36.4431C94.1616 36.3048 94.2077 36.1716 94.2816 36.0536H94.2799ZM94.7999 38.6507C94.8532 38.5281 94.8757 38.3944 94.8655 38.2612L94.7359 38.1957C94.7359 38.325 94.7359 38.3905 94.6703 38.4559L94.7999 38.6507ZM94.8655 34.687L94.7359 34.8835L94.8655 35.0127L94.9311 34.7525L94.8655 34.687ZM95.4511 32.9344C95.712 32.6742 95.8415 31.959 95.8415 31.5696C95.4511 32.0245 95.3233 32.8035 95.3233 33.4531L95.4528 33.1292L95.4511 32.9344ZM95.7776 30.2064C95.7776 30.1409 95.7776 30.1409 95.712 30.0754V30.2702L95.7776 30.2064ZM95.9728 31.1146V31.1801C95.9728 31.1146 95.9728 31.1146 96.0367 31.1146H95.9728ZM102.611 40.7307C102.611 40.7962 102.287 40.991 102.287 41.1202L102.482 41.2494C102.574 41.0887 102.64 40.9141 102.677 40.7325L102.611 40.7307Z" fill="#F08A5D"></path> <path d="M110.884 34.2354C111.383 33.9319 111.772 33.4764 111.991 32.936L111.926 32.8705C111.991 32.2863 112.772 31.5711 113.228 31.1816L113.163 31.0524L113.228 30.9214L113.358 31.0524L113.684 30.5974L113.553 30.4665L113.75 30.2717C113.75 29.3635 115.833 27.2197 116.614 26.6993C116.875 26.6355 117.132 26.5046 117.395 26.5046L117.461 26.57C117.721 26.57 117.851 26.2461 118.177 26.2461V26.3098C118.374 26.1357 118.63 26.0427 118.893 26.0496V26.1806L119.153 26.0496L119.478 26.1151L119.673 26.0496C119.739 26.4408 120 26.3753 120 26.7648C120 27.0905 119.805 27.5437 119.739 27.8694V27.9349C119.153 29.2326 118.373 31.0524 118.184 32.4155C118.053 33.7149 117.924 35.209 117.467 36.3792C117.467 36.4429 117.467 36.5739 117.338 36.5739C117.143 36.5739 117.143 37.2874 117.143 37.4183C117.143 38.2628 116.882 38.9693 116.882 39.8206C116.882 40.2101 117.011 42.2902 117.728 42.2902L118.184 41.9645C118.38 41.9645 118.248 42.2902 118.509 42.2902C118.509 42.4849 118.314 42.3539 118.248 42.6142C118.314 42.6796 118.444 42.7434 118.444 42.8744L118.314 43.1984V43.3293C118.184 43.3293 118.053 43.5241 118.053 43.5878L118.119 43.6533C118.119 43.848 117.858 43.848 117.728 43.9135L117.663 43.7826L117.338 43.979H117.143C116.946 43.979 116.751 44.1083 116.555 44.1083C116.296 43.979 116.165 43.848 115.97 43.848L115.904 43.9135C115.514 43.848 114.868 43.3293 114.602 43.1329C113.821 42.7434 113.757 42.0299 113.757 41.2493C113.757 40.8598 113.43 40.4703 113.43 40.0809C113.43 39.4312 113.757 38.6522 113.757 37.8716L113.691 37.8078L113.757 37.6131C113.757 36.6377 114.016 36.0535 114.016 35.209C114.016 35.1436 113.886 34.9488 113.886 34.8851C113.821 35.5347 112.584 36.3137 112.389 36.8979C111.87 37.6131 111.352 38.2628 110.891 38.9107C109.069 40.2101 109.459 40.4048 108.156 41.575C107.7 42.0299 107.12 42.3539 106.602 42.7434V42.6796C105.496 42.6796 104.65 43.2638 103.542 43.2638C103.477 43.2638 103.152 43.0691 103.024 43.0691L102.763 43.1329C101.853 42.0989 101.397 41.0545 101.397 39.7569C101.397 38.1318 101.915 36.5084 102.504 34.9488C103.04 33.5105 103.739 32.1379 104.588 30.8577C104.848 30.4027 105.173 29.9477 105.434 29.5583L105.759 29.0413C105.759 29.0413 106.02 28.9775 106.02 28.912L106.866 27.1577C106.866 27.0939 107.384 26.6407 107.384 26.5735C107.384 26.3133 110.704 23.911 111.224 23.5852C111.876 23.5852 112.527 23.325 113.049 23.0682C113.322 22.9379 113.605 22.829 113.895 22.7425C113.961 22.7425 113.895 22.7425 113.895 22.808C114.319 22.6857 114.757 22.6202 115.198 22.6133C115.31 22.5967 115.425 22.6192 115.522 22.6771L115.457 22.5478C116.63 22.5478 117.801 23.6525 118.518 24.4314C118.541 24.4961 118.586 24.5508 118.646 24.5862C118.705 24.6217 118.774 24.6358 118.843 24.6261L118.779 24.6916L118.908 24.8864V24.9484L118.583 24.8829L118.452 25.0122C118.452 25.3379 118.908 25.4033 118.908 25.5981L118.583 25.4034L118.193 25.5326C118.193 25.7928 118.583 25.8566 118.908 25.9221C117.476 25.5981 117.353 25.7273 116.108 24.9484C115.654 24.6882 115.198 23.973 114.676 23.973C114.61 23.973 113.439 24.2987 113.309 24.3625C113.505 24.1677 113.766 24.104 114.025 23.973C113.7 23.973 112.073 24.7537 112.073 25.0776H112.397C112.332 25.4033 111.617 26.2478 111.224 26.3115L111.356 26.4425L111.224 26.5063L111.421 26.701C110.965 27.0267 110.314 27.735 110.314 28.252C109.988 28.5122 108.816 30.5905 108.759 30.98C108.174 31.3057 107.522 32.7344 107.327 33.384V33.3186C106.291 34.487 104.593 39.0348 104.463 40.7288C104.593 40.8581 104.397 40.9891 104.658 40.9891C105.177 40.4031 106.286 39.364 107.132 39.1692H107.393L107.522 38.909H107.457C107.522 38.7143 107.975 38.3248 108.044 38.1301V38.1956C108.058 37.9064 108.158 37.6281 108.332 37.3965C108.506 37.1649 108.746 36.9906 109.02 36.8962H108.955C109.02 36.5722 109.801 36.5067 109.801 35.9225L109.737 35.857L110.062 35.6623H109.996C110.062 35.2073 110.452 34.7524 110.908 34.4921L110.974 34.2974L110.884 34.2354ZM105.03 30.532C104.898 30.532 104.898 30.6629 104.898 30.7267C104.959 30.6629 105.03 30.5974 105.03 30.532ZM107.308 39.0417C107.243 39.1072 107.243 39.1072 107.113 39.1072L107.308 39.0417ZM107.633 38.7815V38.847C107.658 38.8214 107.676 38.7907 107.688 38.757C107.699 38.7233 107.703 38.6875 107.699 38.6522L107.633 38.7815ZM107.83 38.6522V38.5868L107.699 38.6522H107.83ZM112.321 24.621C111.997 25.2052 111.214 25.655 110.889 26.2461V26.1806C111.145 25.8549 111.731 24.6864 112.316 24.621H112.321ZM112.387 24.9467C112.453 24.8812 112.582 24.6864 112.648 24.621L112.777 24.7519C112.777 24.8812 112.582 24.9467 112.453 25.0104L112.387 24.9467ZM112.843 24.621C112.963 24.4871 113.123 24.3958 113.299 24.3607C113.154 24.4614 112.999 24.5485 112.838 24.621H112.843ZM113.299 30.7922C113.299 30.8577 113.299 30.8577 113.233 30.8577C113.228 30.7922 113.228 30.7922 113.294 30.7922H113.299ZM113.363 31.7658L113.429 31.7021C113.393 31.6978 113.358 31.7012 113.324 31.7123C113.29 31.7233 113.259 31.7416 113.233 31.7658H113.363ZM113.299 30.7922L113.363 30.7267C113.429 30.7267 113.429 30.7267 113.429 30.6629C113.429 30.7267 113.429 30.7267 113.363 30.7922H113.299ZM114.209 37.4821L114.275 37.4183L114.209 37.3529V37.4821ZM118.832 25.8549C118.65 25.8692 118.468 25.8238 118.314 25.7256C118.509 25.7256 118.77 25.8549 118.965 25.8549H118.832Z" fill="#F08A5D"></path> </svg> 