<?xml version="1.0" encoding="UTF-8"?> <svg xmlns="http://www.w3.org/2000/svg" width="339" height="232" viewBox="0 0 339 232" fill="none"> <path d="M197.782 116.052C203.472 118.307 209.306 120.246 215.147 122.06C238.752 129.415 262.475 136.297 287.345 137.972C294.989 138.518 302.691 138.673 310.168 135.55C292.96 130.768 275.722 126.64 258.458 122.625C241.194 118.61 223.705 115.343 205.486 112.157C210.969 109.159 210.955 109.228 217.718 110.852C240.88 116.494 264.331 120.316 288.286 119.374C295.976 119.057 303.669 118.444 310.991 115.322C284.415 111.126 257.664 109.022 229.979 106.236C233.385 102.567 236.209 102.883 239.204 103.414C251.455 105.666 263.87 106.902 276.323 107.109C290.122 107.226 303.869 106.628 316.81 100.832C317.987 100.312 319.925 100.374 319.721 97.6638L260.733 97.2642C259.946 97.467 259.096 97.8662 258.779 96.6507C258.812 96.5927 259.893 96.2624 260.421 96.0391C267.261 93.7086 274.09 91.6428 281.455 91.3062C297.031 90.5789 312.578 89.4094 327.759 85.4998C331.957 84.4165 336.238 83.2782 339 79.4304C337.517 77.7091 335.961 78.3711 334.583 78.4782C320.543 79.5283 306.565 81.2812 292.702 83.7305C283.145 85.3816 274.352 89.6013 264.814 91.1083L262.529 91.6713L261.385 91.6423C261.7 91.386 262.016 91.1297 262.31 90.8872L264.435 89.754C280.375 80.9048 296.249 72.0164 311.158 59.9916C306.072 58.3433 302.631 59.9928 299.306 61.464C281.307 69.4083 265.713 81.1666 250.279 93.0947C248.599 94.5035 246.589 95.4637 244.438 95.8858C242.906 96.1488 240.831 97.2851 240.068 95.3219C239.436 93.6671 241.643 93.0844 242.781 92.2971C253.479 84.9336 264.345 77.7704 274.993 70.3139C284.644 63.5579 294.106 56.5254 304.881 48.716C298.27 48.3022 293.793 50.0493 289.455 51.7999C267.041 61.1146 248.821 76.3735 232.568 93.8785C226.086 100.866 218.198 101.056 210.158 102.718C235.069 80.9149 259.499 58.7827 282.996 35.5179C279.523 35.4336 276.818 36.9923 274.122 38.4915C248.308 52.7818 228.143 73.4695 209.784 96.0781C204.641 102.42 199.491 107.636 190.801 107.607C190.226 107.753 189.543 108.557 189.16 107.588C189.055 107.346 189.975 106.691 190.413 106.222C218.538 80.1008 244.998 52.242 269.639 22.8092C267.607 22.9509 265.625 23.4985 263.808 24.4197C256.864 28.0004 250.4 32.4439 244.569 37.6449C221.618 57.4588 202.968 81.086 185.374 105.543C181.085 111.501 175.349 111.115 169.577 112.243C197.717 81.8705 223.246 49.5632 247.924 16.4939C239.96 18.9618 233.651 23.7268 227.756 29.0925C203.25 51.3104 184.906 78.3647 167.813 106.336C162.623 114.817 155.779 118.654 145.082 118.124C160.426 101.59 174.015 83.9396 187.431 66.1635C200.848 48.3874 214.2 30.5223 226.346 11.7286C215.284 16.0568 206.419 23.3056 198.247 31.367C174.388 54.9904 157.619 83.4061 143.304 113.447C139.981 120.414 132.755 124.263 124.272 123.206C152.178 86.0162 176.335 46.5184 200.582 6.84087C197.996 5.73384 196.997 7.13016 195.818 7.85491C188.46 12.5554 181.785 18.2485 175.982 24.7733C151.499 51.5575 135.306 83.3117 122.572 116.806C118.919 126.447 112.557 128.15 103.872 129.969C126.4 87.7499 144.341 44.3133 162.685 0C160.99 0.568479 160.422 0.614299 160.034 0.906258C159.007 1.68023 158.006 2.52083 157.048 3.39906C144.317 14.9797 135.406 29.2835 127.983 44.653C115.337 70.8849 106.843 98.5734 100.933 127.059C100.597 128.67 100.59 130.872 98.8595 131.368C92.5249 133.204 86.498 136.339 79.7166 136.355C84.8506 130.073 87.2353 122.318 90.362 115.043C102.556 86.7321 112.578 57.604 122.834 28.5602C126.035 19.4581 128.981 10.2605 132.045 1.10506C121.666 8.49778 115.099 18.403 109.379 29.055C96.8045 52.5031 89.4606 77.7733 83.9636 103.62C81.619 114.391 79.1452 125.229 78.7815 136.344L78.6569 136.337L78.744 136.387C74.4815 139.974 69.1189 140.281 63.6022 141.996C77.431 100.143 87.2821 58.0304 97.0957 14.9545C94.7344 16.0778 92.7479 17.8595 91.3749 20.0854C84.8693 29.1604 79.6991 39.1226 76.0223 49.6678C66.1286 77.4121 61.8163 106.214 60.5733 135.486C60.3073 141.782 58.3206 145.136 52.1688 146.006C51.2585 146.194 50.3688 146.471 49.5124 146.832C46.9095 147.766 45.7442 147.506 46.4479 144.184C53.5251 110.479 57.0053 76.2561 60.9715 42.1077C61.1885 40.2337 61.9019 38.2595 60.4691 35.6904C59.0595 37.8428 57.932 39.4616 56.9261 41.1379C50.9681 50.9947 47.7863 61.8749 45.5343 73.0214C40.7474 96.6989 40.3883 120.639 41.841 144.657C42.156 149.857 42.0365 149.93 36.4581 150.164C37.2929 121.108 35.8054 92.1412 33.3427 63.166C28.4062 70.9171 27.0321 79.5137 26.3489 88.1871C24.7663 108.234 27.5129 127.931 32.0962 147.373C33.1111 151.829 31.9494 153.016 28.1052 154.29C19.9816 156.924 12.0425 160.154 4.02828 163.134C1.32536 164.153 -0.903553 165.78 0.366257 168.9C1.63607 172.02 4.17784 171.773 6.9589 170.619C14.6956 167.427 22.5982 164.64 30.2333 161.221C34.1723 159.447 35.7559 160.078 37.7036 164.079C47.9036 185.077 59.8052 204.981 77.1882 220.996C81.9452 225.382 86.8521 229.688 94.6503 232C93.1651 229.723 92.5296 228.634 91.7899 227.613C75.4211 205.257 59.1591 182.873 40.7512 162.151C39.7101 160.982 36.9783 159.636 39.2723 158.007C40.9854 156.804 43.9158 154.743 45.9762 158.281C46.3655 158.915 46.7865 159.528 47.2375 160.119C64.0476 182.962 82.2568 204.498 105.751 220.832C113.322 226.109 121.346 230.422 130.778 231.937C104.7 205.326 78.0793 179.434 49.1454 155.74C58.0461 151.156 58.8572 151.315 64.9574 157.845C68.5032 161.647 72.0755 165.427 75.8175 169.046C96.5957 189.125 118.204 208.123 145.174 219.706C151.819 222.564 158.622 225.037 166.135 224.824C133.803 198.793 100.853 173.9 66.1462 150.173C68.9656 148.796 72.0699 148.848 74.6624 147.753C78.6393 146.181 81.4218 147.015 84.4769 149.902C93.7216 158.511 103.494 166.534 113.736 173.926C134.054 188.812 155.244 202.163 179.441 209.835C187.072 212.257 194.919 214.172 203.23 213.427C165.622 188.939 127.267 165.968 86.7026 144.725C91.1931 143.269 94.5539 142.296 97.8283 141.092C100.397 140.151 102.332 140.753 104.453 142.442C121.248 155.996 139.264 167.963 158.267 178.189C176.01 187.679 194.437 195.602 214.621 198.402C218.824 198.986 223.111 199.85 228.756 198.248C188.93 176.8 150.089 156.437 108.745 138.357C112.404 137.246 114.881 136.664 117.275 135.713C122.41 133.52 126.596 134.648 131.178 137.773C139.358 143.246 147.958 148.125 156.58 152.9C180.756 166.286 205.827 177.404 233.377 181.789C241.174 183.03 249.035 183.714 257.021 181.698C216.553 163.62 175.843 146.408 133.903 131.865C138.606 130.622 142.661 126.812 147.953 129.87C163.101 138.595 178.977 145.989 195.402 151.968C215.824 159.406 236.584 165.053 258.482 164.702C262.762 164.595 267.23 165.19 272.496 162.479C233.491 148.974 195.462 136.55 156.851 125.581C161.016 123.818 165.274 122.282 169.606 120.98C171.372 120.4 172.8 121.032 174.352 121.696C192.051 129.449 210.225 136.071 228.762 141.521C246.657 146.7 264.732 150.964 283.565 150.068C286.115 149.941 288.931 150.291 291.771 147.65C255.74 136.456 220.07 126.606 182.694 118.17C188.47 115.38 192.777 114.063 197.782 116.052ZM238.711 95.8407C238.766 96.0142 238.805 96.1918 238.844 96.3694L238.505 96.5992L238.202 95.9852L238.711 95.8407ZM78.6948 137.545L78.7729 137.41L78.7696 137.55L78.6948 137.545Z" fill="#E5DCD2" fill-opacity="0.5"></path> </svg> 