<?xml version="1.0" encoding="UTF-8"?> <svg xmlns="http://www.w3.org/2000/svg" width="50" height="50" viewBox="0 0 50 50" fill="none"> <g clip-path="url(#clip0)"> <path d="M32.4968 27.9153L27.8817 32.5303L25.6415 30.2677C25.2066 29.8266 24.4956 29.8214 24.0546 30.2567C23.6132 30.692 23.6079 31.4025 24.0432 31.8435L27.0824 34.9056C27.293 35.1201 27.5805 35.2419 27.8817 35.2433C28.1799 35.2411 28.4661 35.1241 28.6807 34.9166L34.0951 29.5026C34.3057 29.292 34.4244 29.0066 34.4244 28.7089C34.4244 28.4113 34.3057 28.1255 34.0951 27.9153C33.6527 27.4765 32.9391 27.4765 32.4968 27.9153V27.9153Z" fill="#E19371"></path> <path d="M45.2726 12.3478H38.3835V9.33108C38.3879 6.3561 36.9707 3.55745 34.57 1.79955C32.1693 0.0420849 29.0734 -0.463564 26.2382 0.43869C23.4031 -0.463564 20.3072 0.0420849 17.9064 1.79955C15.5057 3.55745 14.089 6.3561 14.093 9.33108V12.3478H12.044C12.0216 12.3478 11.9991 12.3593 11.9767 12.3593C11.9653 12.3593 11.9429 12.3702 11.9314 12.3702C11.909 12.3702 11.898 12.3817 11.8752 12.3817C11.8527 12.3817 11.8417 12.3931 11.8189 12.3931C11.8022 12.3958 11.7863 12.4037 11.774 12.4155C11.7516 12.4265 11.7402 12.4265 11.7177 12.438C11.7063 12.4494 11.6953 12.4494 11.6729 12.4604C11.6527 12.4692 11.6338 12.4806 11.6166 12.4942C11.6052 12.4942 11.6052 12.5057 11.5937 12.5057L10.2096 13.3385C9.13366 13.9914 7.78423 13.9914 6.70874 13.3385L5.33557 12.5057C4.98909 12.2929 4.55468 12.2841 4.19984 12.4824C3.84457 12.6811 3.62472 13.0557 3.62472 13.4625V44.3717C3.6256 47.4794 6.14461 49.9989 9.25281 49.9998H40.7701C43.8779 49.9989 46.3969 47.4794 46.3982 44.3717V13.4734C46.3965 12.8526 45.8935 12.3496 45.2726 12.3478V12.3478ZM36.1322 9.33108V12.3478H32.7554V9.33108C32.7576 6.61245 31.5686 4.02924 29.5025 2.26254C33.2307 2.50174 36.1322 5.59543 36.1322 9.33108ZM21.9609 12.3478V9.33108C21.9631 6.50736 23.6379 3.95317 26.2268 2.82535C28.8179 3.95053 30.494 6.50648 30.4932 9.33108V12.3478H21.9609ZM16.3328 9.33108C16.3367 5.59675 19.2361 2.50526 22.9625 2.26254C20.9008 4.03276 19.7127 6.61376 19.7096 9.33108V12.3478H16.3328V9.33108ZM5.87596 44.3831V15.4547C7.49843 16.2989 9.43089 16.2989 11.0538 15.4547V44.3831C11.0525 45.6011 11.4473 46.7865 12.1794 47.76H9.25281C7.38983 47.7543 5.88124 46.2457 5.87596 44.3831ZM44.147 44.3831C44.1413 46.2457 42.6327 47.7543 40.7701 47.76H16.6819C14.8189 47.7543 13.3103 46.2457 13.305 44.3831V14.5991H15.0269C15.0898 14.6127 15.154 14.6206 15.2186 14.6215C15.2828 14.6197 15.347 14.6123 15.4099 14.5991H19.7211V22.6134C19.7211 23.2351 20.225 23.739 20.8467 23.739C21.468 23.739 21.9723 23.2351 21.9723 22.6134V14.5991H31.4499C31.5128 14.6127 31.577 14.6206 31.6412 14.6215C31.7054 14.6197 31.7696 14.6123 31.8325 14.5991H36.1437V22.6134C36.1437 23.2351 36.6476 23.739 37.2693 23.739C37.891 23.739 38.3949 23.2351 38.3949 22.6134V14.5991H44.147V44.3831Z" fill="#E19371"></path> </g> <defs> <clipPath id="clip0"> <rect width="50" height="50" fill="white"></rect> </clipPath> </defs> </svg> 