<?xml version="1.0" encoding="UTF-8"?> <svg xmlns="http://www.w3.org/2000/svg" width="50" height="50" viewBox="0 0 50 50" fill="none"> <g clip-path="url(#clip0)"> <path d="M50 13.8693V13.8289C50 13.8084 49.9897 13.7882 49.9897 13.768C49.9897 13.7578 49.9795 13.7376 49.9795 13.7277C49.9795 13.7071 49.9696 13.6973 49.9696 13.6771C49.9696 13.6565 49.9593 13.6466 49.9494 13.6265C49.9466 13.6111 49.9395 13.5968 49.9288 13.5857C49.919 13.5656 49.919 13.5454 49.9087 13.5351C49.8988 13.5252 49.8988 13.515 49.8885 13.4948C49.8806 13.4766 49.8703 13.4596 49.8581 13.4442C49.8581 13.4339 49.8482 13.4339 49.8482 13.424L44.6445 5.02153C44.4594 4.72455 44.1339 4.54462 43.784 4.54541H7.22838C6.90965 4.54541 6.6095 4.69568 6.4185 4.95035L0.192571 13.3429C0.192571 13.3528 0.182289 13.3528 0.182289 13.3631C0.172008 13.3833 0.162122 13.3936 0.15184 13.4137C0.139581 13.4236 0.132068 13.4382 0.131672 13.4541C0.121391 13.4746 0.111504 13.4845 0.101223 13.5047C0.0913365 13.515 0.0913365 13.5351 0.0810548 13.5454C0.0707732 13.5656 0.0707732 13.5759 0.060887 13.596C0.0506054 13.6059 0.0506054 13.6265 0.0407192 13.6466C0.0407192 13.6668 0.0304375 13.6771 0.0304375 13.6973C0.0304375 13.7174 0.0201559 13.7277 0.0201559 13.7479C0.0201559 13.7578 0.0102696 13.7783 0.0102696 13.7882C0.00789699 13.8052 0.00433796 13.8222 -1.19667e-05 13.8388V17.0985C-0.00752548 18.4304 0.517234 19.7097 1.458 20.652C2.17376 21.3749 3.09753 21.8561 4.09999 22.029V44.6244C4.10157 45.1828 4.55397 45.6352 5.11234 45.6368H44.8877C45.446 45.6352 45.8984 45.1828 45.9 44.6244V22.0187C48.2854 21.5944 50.0174 19.5115 50 17.0886V13.8693ZM47.1753 12.938H41.6074L38.2264 6.56022H43.2375L47.1753 12.938ZM20.9354 6.56022L18.9412 12.938H10.8523L14.9321 6.56022H20.9354ZM26.9387 6.56022L28.9329 12.938H21.0671L23.0613 6.56022H26.9387ZM35.9284 6.56022L39.3095 12.938H31.0589L29.0646 6.56022H35.9284ZM20.6926 14.9627H29.2975V17.9997C29.2975 20.376 27.3709 22.3022 24.9951 22.3022C22.6188 22.3022 20.6926 20.376 20.6926 17.9997V14.9627ZM10.0728 14.9627H18.6778V17.9997C18.6778 20.376 16.7516 22.3022 14.3753 22.3022C11.9991 22.3022 10.0728 20.376 10.0728 17.9997V14.9627ZM13.4136 24.2561C13.7284 24.3052 14.0467 24.3289 14.3654 24.3269C16.5131 24.3253 18.5141 23.2355 19.6802 21.4314C20.8504 23.2454 22.8652 24.3372 25.0239 24.3269C27.1827 24.3166 29.1868 23.2058 30.3399 21.3808C31.4982 23.2149 33.5162 24.3269 35.6852 24.3269C35.9865 24.3273 36.2879 24.3067 36.5864 24.266V35.2195H13.4136V24.2561ZM35.6753 22.3022C33.301 22.2971 31.378 20.3736 31.3728 17.9997V14.9627H39.9778V17.9997C39.9762 20.3752 38.0508 22.3006 35.6753 22.3022ZM7.73455 6.56022H12.5127L8.43291 12.938H3.01686L7.73455 6.56022ZM2.01479 17.0886V14.9627H7.98764V17.0886C8.00385 18.5688 6.92191 19.8326 5.45677 20.0446C5.34288 20.0039 5.22306 19.9833 5.10245 19.9837C4.96325 19.9845 4.82564 20.0118 4.69751 20.0648C3.16673 19.9181 2.00254 18.6261 2.01479 17.0886ZM6.12468 43.6121V21.9783C7.04726 21.7782 7.89155 21.314 8.55432 20.6417L8.60493 20.5911C9.18387 21.8688 10.1654 22.9211 11.3992 23.5878V36.2319C11.4007 36.7906 11.8531 37.2426 12.4115 37.2442H37.5988C38.1571 37.2426 38.6095 36.7906 38.6111 36.2319V23.608C39.8592 22.9571 40.8561 21.9103 41.4457 20.6318L41.4556 20.6417C42.1215 21.31 42.9646 21.7739 43.8852 21.9783V43.6121H6.12468ZM47.9753 17.0886C47.9864 18.6293 46.8167 19.9224 45.2823 20.0648C45.1538 20.0118 45.0162 19.9845 44.8774 19.9837C44.7568 19.9833 44.637 20.0039 44.5231 20.0446C43.0583 19.8322 41.9764 18.5688 41.9922 17.0886V14.9627H47.965V17.0886H47.9753Z" fill="#E19371"></path> </g> <defs> <clipPath id="clip0"> <rect width="50" height="50" fill="white"></rect> </clipPath> </defs> </svg> 